<svg xmlns="http://www.w3.org/2000/svg" viewBox="0 0 360 420" role="img" aria-label="Saturday runner mascot">
  <defs>
    <linearGradient id="suit" x1="75" x2="290" y1="80" y2="350" gradientUnits="userSpaceOnUse">
      <stop stop-color="#2364ff"/>
      <stop offset="1" stop-color="#00c2a8"/>
    </linearGradient>
    <linearGradient id="shield" x1="98" x2="262" y1="208" y2="370" gradientUnits="userSpaceOnUse">
      <stop stop-color="#ffd34d"/>
      <stop offset="1" stop-color="#ff8a3d"/>
    </linearGradient>
  </defs>
  <ellipse cx="184" cy="388" rx="116" ry="20" fill="#0f1724" opacity=".28"/>
  <path d="M156 279c-15 23-29 49-41 78-4 9 1 20 11 23 9 3 18-1 22-10 12-25 26-49 43-71l-35-20Z" fill="#111827"/>
  <path d="M219 286c23 13 47 29 72 49 8 7 20 5 26-3 6-8 4-19-4-25-25-22-54-41-85-57l-9 36Z" fill="#111827"/>
  <path d="M98 159c-35 14-55 35-61 62-3 12 5 24 17 27 11 2 22-5 25-16 3-14 17-25 40-34l-21-39Z" fill="#2364ff"/>
  <path d="M265 153c35 14 55 35 61 62 3 12-5 24-17 27-11 2-22-5-25-16-3-14-17-25-40-34l21-39Z" fill="#00c2a8"/>
  <path d="M106 166c11-51 43-82 78-82 37 0 68 31 78 82 10 49 1 111-27 146-14 17-33 28-53 28-22 0-42-11-56-29-27-35-31-97-20-145Z" fill="url(#suit)"/>
  <path d="M130 210c12-12 32-19 54-19 21 0 41 7 53 19-5 64-24 103-54 103-30 0-49-39-53-103Z" fill="url(#shield)"/>
  <path d="M154 235h59v18h-19v44h-21v-44h-19v-18Z" fill="#111827"/>
  <path d="M121 116c3-46 27-77 63-77 38 0 62 31 65 77 1 24-5 45-18 60-12 14-28 21-47 21-18 0-34-7-46-21-13-15-19-36-17-60Z" fill="#ffd2a6"/>
  <path d="M109 116c8-58 40-88 79-88 34 0 62 25 71 70-18-12-40-18-68-18-33 0-60 12-82 36Z" fill="#111827"/>
  <path d="M126 119c34-17 73-17 116 0l-6 37c-34 12-69 12-104 0l-6-37Z" fill="#0f1724"/>
  <path d="M148 139c10-8 22-8 32 0" fill="none" stroke="#00c2a8" stroke-width="8" stroke-linecap="round"/>
  <path d="M190 139c10-8 22-8 32 0" fill="none" stroke="#00c2a8" stroke-width="8" stroke-linecap="round"/>
  <path d="M164 169c12 8 27 8 39 0" fill="none" stroke="#784421" stroke-width="6" stroke-linecap="round"/>
  <path d="M115 89c-18 9-28 23-31 42 20-13 41-21 63-25l-32-17Z" fill="#ff3d57"/>
  <path d="M242 82c17 8 29 21 36 40-20-10-42-16-66-18l30-22Z" fill="#ff8a3d"/>
  <path d="M104 357c20-7 37-4 51 9 5 5 3 13-4 15-26 7-49 5-69-4 3-9 10-16 22-20Z" fill="#ff3d57"/>
  <path d="M287 322c22 0 38 8 47 23 3 6-1 13-8 13-27-1-48-9-64-23 5-8 13-13 25-13Z" fill="#ffd34d"/>
  <path d="M77 260c-23 7-39 19-50 37" fill="none" stroke="#ffd34d" stroke-width="10" stroke-linecap="round"/>
  <path d="M282 259c22 6 39 17 51 34" fill="none" stroke="#00c2a8" stroke-width="10" stroke-linecap="round"/>
</svg>
